<svg width="664" height="869" viewBox="0 0 664 869" fill="none" xmlns="http://www.w3.org/2000/svg">
<path fill-rule="evenodd" clip-rule="evenodd" d="M403.561 367.254C409.706 371.445 416.169 375.204 422.907 378.488C416.644 374.466 410.19 370.716 403.561 367.254Z" fill="#D02E2E"/>
<path fill-rule="evenodd" clip-rule="evenodd" d="M403.561 367.254C409.706 371.445 416.169 375.204 422.907 378.488C416.644 374.466 410.19 370.716 403.561 367.254Z" fill="url(#paint0_linear)"/>
<path d="M268 533.5C346.525 533.5 399.5 513.5 458.5 463C412 558.5 318 572.5 241 563C164 553.5 44.646 486.779 28 348C28 169.612 172.612 25 351 25C469.255 25 572.668 88.5498 628.949 183.361C617.095 159.726 602.503 137.703 585.589 117.707C524.689 45.7121 433.683 0 332 0C148.641 0 0 148.641 0 332C0 356.902 2.74164 381.164 7.93954 404.5C16.3244 442.144 31.101 477.379 51.0713 509.008C91.4995 573.037 153.213 622.284 226.273 646.811C229.386 647.856 232.52 648.856 235.674 649.811C235.702 649.819 235.731 649.828 235.759 649.836C266.221 659.048 298.532 664 332 664C409.814 664 481.376 637.23 537.977 592.396C614.75 531.586 664 437.544 664 332C664 291.322 656.684 252.353 643.297 216.337C644.434 223.896 645.023 231.635 645.023 239.512C645.023 324.846 575.846 394.023 490.512 394.023C466.267 394.023 443.327 388.44 422.907 378.488C416.169 375.204 409.706 371.445 403.561 367.254C368.999 349.205 329.691 339 288 339C204.584 339 130.71 379.854 85.2954 442.644C130.923 491.476 195.897 533.5 268 533.5Z" fill="#D02E2E"/>
<path d="M268 533.5C346.525 533.5 399.5 513.5 458.5 463C412 558.5 318 572.5 241 563C164 553.5 44.646 486.779 28 348C28 169.612 172.612 25 351 25C469.255 25 572.668 88.5498 628.949 183.361C617.095 159.726 602.503 137.703 585.589 117.707C524.689 45.7121 433.683 0 332 0C148.641 0 0 148.641 0 332C0 356.902 2.74164 381.164 7.93954 404.5C16.3244 442.144 31.101 477.379 51.0713 509.008C91.4995 573.037 153.213 622.284 226.273 646.811C229.386 647.856 232.52 648.856 235.674 649.811C235.702 649.819 235.731 649.828 235.759 649.836C266.221 659.048 298.532 664 332 664C409.814 664 481.376 637.23 537.977 592.396C614.75 531.586 664 437.544 664 332C664 291.322 656.684 252.353 643.297 216.337C644.434 223.896 645.023 231.635 645.023 239.512C645.023 324.846 575.846 394.023 490.512 394.023C466.267 394.023 443.327 388.44 422.907 378.488C416.169 375.204 409.706 371.445 403.561 367.254C368.999 349.205 329.691 339 288 339C204.584 339 130.71 379.854 85.2954 442.644C130.923 491.476 195.897 533.5 268 533.5Z" fill="url(#paint1_linear)"/>
<path d="M114.387 791.289C114.387 787.057 112.629 783.835 109.113 781.621C105.663 779.408 99.901 777.454 91.8281 775.762C83.7552 774.069 77.0169 771.921 71.6133 769.316C59.7643 763.587 53.8398 755.286 53.8398 744.414C53.8398 735.299 57.681 727.682 65.3633 721.562C73.0456 715.443 82.8112 712.383 94.6602 712.383C107.29 712.383 117.479 715.508 125.227 721.758C133.039 728.008 136.945 736.113 136.945 746.074H113.215C113.215 741.517 111.522 737.741 108.137 734.746C104.751 731.686 100.259 730.156 94.6602 730.156C89.4518 730.156 85.1875 731.361 81.8672 733.77C78.612 736.178 76.9844 739.401 76.9844 743.438C76.9844 747.083 78.5143 749.915 81.5742 751.934C84.6341 753.952 90.819 756.003 100.129 758.086C109.439 760.104 116.73 762.546 122.004 765.41C127.342 768.21 131.281 771.595 133.82 775.566C136.424 779.538 137.727 784.355 137.727 790.02C137.727 799.525 133.788 807.24 125.91 813.164C118.033 819.023 107.714 821.953 94.9531 821.953C86.2943 821.953 78.5794 820.391 71.8086 817.266C65.0378 814.141 59.7643 809.844 55.9883 804.375C52.2122 798.906 50.3242 793.014 50.3242 786.699H73.3711C73.6966 792.298 75.8125 796.628 79.7188 799.688C83.625 802.682 88.8008 804.18 95.2461 804.18C101.496 804.18 106.249 803.008 109.504 800.664C112.759 798.255 114.387 795.13 114.387 791.289ZM183.723 820H159.992V714.336H183.723V820ZM158.527 686.895C158.527 683.249 159.667 680.221 161.945 677.812C164.289 675.404 167.609 674.199 171.906 674.199C176.203 674.199 179.523 675.404 181.867 677.812C184.211 680.221 185.383 683.249 185.383 686.895C185.383 690.475 184.211 693.47 181.867 695.879C179.523 698.223 176.203 699.395 171.906 699.395C167.609 699.395 164.289 698.223 161.945 695.879C159.667 693.47 158.527 690.475 158.527 686.895ZM247.59 749.102L267.707 714.336H294.074L261.75 766.387L295.148 820H268.977L247.883 783.867L226.887 820H200.52L233.918 766.387L201.691 714.336H227.863L247.59 749.102ZM351.691 803.008C357.616 803.008 362.531 801.283 366.438 797.832C370.344 794.382 372.427 790.117 372.688 785.039H395.051C394.79 791.615 392.74 797.767 388.898 803.496C385.057 809.16 379.849 813.652 373.273 816.973C366.698 820.293 359.602 821.953 351.984 821.953C337.206 821.953 325.487 817.168 316.828 807.598C308.169 798.027 303.84 784.811 303.84 767.949V765.508C303.84 749.427 308.137 736.569 316.73 726.934C325.324 717.233 337.043 712.383 351.887 712.383C364.452 712.383 374.673 716.061 382.551 723.418C390.493 730.71 394.66 740.312 395.051 752.227H372.688C372.427 746.172 370.344 741.191 366.438 737.285C362.596 733.379 357.681 731.426 351.691 731.426C344.009 731.426 338.085 734.225 333.918 739.824C329.751 745.358 327.635 753.789 327.57 765.117V768.926C327.57 780.384 329.621 788.945 333.723 794.609C337.889 800.208 343.879 803.008 351.691 803.008ZM476.105 820C475.064 817.982 474.152 814.694 473.371 810.137C465.819 818.014 456.574 821.953 445.637 821.953C435.025 821.953 426.366 818.926 419.66 812.871C412.954 806.816 409.602 799.329 409.602 790.41C409.602 779.147 413.768 770.521 422.102 764.531C430.5 758.477 442.479 755.449 458.039 755.449H472.59V748.516C472.59 743.047 471.06 738.685 468 735.43C464.94 732.109 460.285 730.449 454.035 730.449C448.632 730.449 444.204 731.816 440.754 734.551C437.303 737.22 435.578 740.638 435.578 744.805H411.848C411.848 739.01 413.768 733.607 417.609 728.594C421.451 723.516 426.659 719.544 433.234 716.68C439.875 713.815 447.264 712.383 455.402 712.383C467.772 712.383 477.635 715.508 484.992 721.758C492.349 727.943 496.125 736.667 496.32 747.93V795.586C496.32 805.091 497.655 812.676 500.324 818.34V820H476.105ZM450.031 802.91C454.719 802.91 459.113 801.771 463.215 799.492C467.382 797.214 470.507 794.154 472.59 790.312V770.391H459.797C451.008 770.391 444.4 771.921 439.973 774.98C435.546 778.04 433.332 782.37 433.332 787.969C433.332 792.526 434.829 796.172 437.824 798.906C440.884 801.576 444.953 802.91 450.031 802.91ZM543.195 714.336L543.879 726.543C551.691 717.103 561.945 712.383 574.641 712.383C596.646 712.383 607.844 724.98 608.234 750.176V820H584.504V751.543C584.504 744.837 583.039 739.889 580.109 736.699C577.245 733.444 572.525 731.816 565.949 731.816C556.379 731.816 549.25 736.146 544.562 744.805V820H520.832V714.336H543.195Z" fill="#AA1B1B"/>
<defs>
<linearGradient id="paint0_linear" x1="837" y1="42.4999" x2="240.5" y2="635.5" gradientUnits="userSpaceOnUse">
<stop offset="0.171261" stop-color="#DA1515" stop-opacity="0.382716"/>
<stop offset="0.497223" stop-color="#CD1515" stop-opacity="0"/>
<stop offset="0.662709" stop-color="#9D2B2B" stop-opacity="0.210264"/>
<stop offset="1" stop-color="#A20F0F"/>
</linearGradient>
<linearGradient id="paint1_linear" x1="837" y1="42.4999" x2="240.5" y2="635.5" gradientUnits="userSpaceOnUse">
<stop offset="0.171261" stop-color="#DA1515" stop-opacity="0.382716"/>
<stop offset="0.497223" stop-color="#CD1515" stop-opacity="0"/>
<stop offset="0.662709" stop-color="#9D2B2B" stop-opacity="0.210264"/>
<stop offset="1" stop-color="#A20F0F"/>
</linearGradient>
</defs>
</svg>
